<svg xmlns="http://www.w3.org/2000/svg" width="1619" height="1352" fill="none"><g clip-path="url(#a)"><path fill="#fff" d="M958.78 1008.03H669.087v184.07H958.78v-184.07ZM1437.13 423.886H173.718v401.707H1437.13V423.886Z"/><path fill="#9F66D3" d="M1602.34 575.281c-9.61-9.807-21.4-17.958-32.64-25.784-37.38-26.239-75.25-51.699-112.63-77.938-15.49-10.295-14.87-25.623-12.44-42.347 5.62-43.905-17.05-82.03-45.95-113.66-27.84-32.701-58.01-62.967-90.84-90.603-16.4-12.795-19.62-26.336-13.8-46.146 11.88-50.14 11.27-101.06 7.04-151.98-1.52-21.595-12.89-24.712-28.28-13.541-27.28 19.485-54.4 39.456-82.01 59.46-20.13 15.588-22.8 3.995-28.06-17.893-3.41-13.12-6.72-26.11-10.23-39.326-1.82-7.307-5.87-15.263-11.72-14.873-8.83.52-16.43 7.858-23.81 12.6-30.56 21.822-59.72 45.301-84.63 73.684-8.77 10.521-20.01 21.562-34.881 18.25-6.723-1.948-13.478-3.864-20.233-5.78C924.191 80.374 867 69.95 807.405 69.95c-64.044 0-125.263 11.983-181.61 33.805-9.353 1.072-18.869.163-26.501-5.942-4.32-3.183-8.152-7.405-11.789-11.431-27.898-31.143-60.927-56.019-95.092-79.985-12.829-9.222-22.182-9.872-26.566 6.82-3.508 13.412-6.496 27.343-10.036 40.82-4.384 17.536-6.527 34.13-25.039 19.972-29.814-21.79-59.173-43.516-89.246-65.598-15.265-11.918-20.396-6.722-22.247 10.262-6.788 57.025-6.268 110.997 6.723 164.157 4.546 16.27 1.266 30.071-12.634 40.463-42.609 34.553-80.867 74.268-113.539 118.369-24.39 32.701-30.268 63.422-25.331 103.04.682 14.094-7.957 24.388-18.967 31.825-34.718 24.778-69.825 49.134-105.127 73.197C34.198 560.83 15.946 572.813 6.3 590.317c-13.608 23.121-2.598 50.14 11.562 70.436 19.551 29.162 41.668 55.986 65.895 80.991 24.845 25.655 51.476 49.101 72.164 79.107 7.015 10.035 13.9 20.719 22.474 29.39 21.889 22.017 51.443 29.551 82.686 24.907 6.04-.779 12.568-1.948 18.511-1.104 8.509.877 15.492 6.82 20.493 13.932 12.439 17.179 24.358 34.78 35.173 53.095 8.314 13.997 16.238 28.285 24.195 42.541 86.388 164.738 231.299 285.708 402.16 356.538 14.972 6.26 31.697 11.85 47.578 11.79 10.036.06 20.298-1.89 30.658-5.27 171.611-66.5 312.231-180.81 408.691-338.15 24.06-39.781 38.77-84.4 68.95-120.447 9.97-12.438 23.54-15.49 38.51-13.217 18.03 1.916 36.6 1.949 53.62-4.871 32.51-13.672 51.19-45.951 71.35-73.327 11.34-16.432 26.05-29.876 41.61-42.281 30-24.713 54.65-54.427 75.28-87.161 19.39-29.422 33.87-63.812 4.51-92.032l-.03.097Zm-28.35 74.529c-22.61 32.474-42.06 57.382-72.72 81.283-22.08 18.055-38.42 41.372-54.3 64.721-59.04 91.447-106.07 18.9-135.56 51.114-3.05 3.572-5.65 17.471-8.51 21.271-8.31 11.496-20.16 17.211-28.54 28.772-7.54 10.002-13.48 24.258-19.04 35.494-54.59 115.215-139.91 210.365-242.24 284.185-58.1 41.53-120.423 73.94-186.124 99.76-17.343 7.01-35.465 2.79-51.995-4.55-173.524-69.23-335.81-211.11-419.6-389.429-8.477-15.555-18.837-28.285-29.749-42.249-9.841-11.269-14.582-33.741-30.268-35.949-11.205-1.429-23.773 5.553-35.27 6.008-10.88.876-21.24.194-31.503-3.378-33.321-11.561 16.466-43.678-66.772-78.977-6.495-11.301-23.383-15.425-34.523-21.92-26.923-16.854-44.655-43.418-65.863-66.54-21.174-26.661-56.152-64.429-20.557-93.461 46.052-35.397 105.257-60.142 151.634-95.084 15.978-10.489 17.505-27.668 13.575-46.081-5.781-34.39 2.793-60.662 23.643-88.525 34.815-41.924 68.981-85.57 115.52-114.764 15.102-8.541 26.274-10.1 19.518-28.61-12.73-38.742-25.559-89.434-24.39-130.416.488-22.765-.649-34.293 24.39-16.14 28.19 19.16 48.781 38.807 68.624 66.799 2.533 3.41 8.314 9.321 11.724 10.49 1.689.617 15.264 15.003 14.03-6.17 4.254-3.28 4.319-10.262 6.171-15.328 6.365-20.979 11.951-41.373 18.381-62.546 4.028-15.263 5.424-10.846 16.888-2.63 30.821 21.4 51.509 37.865 73.983 66.799-15.394 7.599-21.24 13.769-35.725 22.83-8.606-16.432-20.168-29.487-31.47-42.704-.195-.227-7.794 3.735-8.996 6.852-3.995 10.554-6.625 21.596-9.776 32.442-1.201 14.159-2.565 28.318-3.864 42.476a504.328 504.328 0 0 0-47.157 44.458l43.552-.293c-.455 7.112-.877 14.224-1.169 21.368-.585 14.419-5.554 16.984-17.343 14.094-4.677-1.136-9.288-2.858-13.738-4.839-29.001-12.859-57.971-10.294-84.115 5.424-51.443 30.883-90.35 75.275-123.281 124.668-9.776 14.679-11.595 32.702-5.586 52.706 11.204-10.717 20.46-19.582 29.716-28.447 1.201.909 2.371 1.786 3.572 2.695-1.818 25.947-3.605 51.894-5.683 81.705-5.943-8.086-9.353-12.697-12.504-16.984-41.18 29.129-82.036 58.064-123.606 87.486 32.769 9.515 50.858 31.987 49.657 60.369-1.234 29.13-18.869 46.503-53.782 51.959-11.334 1.754-9.353 7.761-4.319 12.957 11.302 11.723 24.78 18.835 42.09 15.945 9.548-1.591 19.291-2.013 28.969-2.955 31.502-12.373 63.07-24.68 94.54-37.183 54.626-21.693 110.031-39.554 170.048-31.078 16.758 2.371 33.289 6.398 50.144 9.71-19.616-79.822-7.697-146.784 36.634-213.356 3.215-4.839 3.768-14.743.975-19.712-17.408-30.948-30.788-63.422-35.4-98.559-3.638-27.766-3.995-55.953-5.813-83.946-.195-.649-.488-1.299-.585-1.981 0-.26.422-.552.682-.844l.195-1.364 667.331-4.417c-39.43-41.209-76.09-75.697-127.5-101.644 21.95-26.499 35.56-44.847 64.33-64.364 7.44-5.423 15.59-18.315 22.35-8.963 3.34 4.547 5.16 17.114 6.88 22.602 5.36 17.569 7.8 28.578 12.83 46.114 1.53 4.806 7.44 26.986 10.62 30.655 6.11 6.3 20.95-21.173 25.04-25.2 12.12-14.646 22.41-21.27 37.06-34.617 11.2-9.742 28.64-26.5 40.98-34.813 13.38-9.417 10.1-4.546 11.01 10.165 1.82 39.716 4.65 80.211-8.08 118.368-2.63 8.314-10.3 16.984-10.92 25.59l-6.52 13.542c-.88 12.048 20.03 16.172 29.19 22.05 54.99 36.144 91.88 77.289 126.86 132.657 10.52 19.874-1.53 41.47-6.86 63.52-2.04 8.995 15.59 32.701 20.79 40.56 3.12 5.261 8.7-.26 13.7 3.475 42.84 30.591 85.45 61.181 128.29 91.74 9.9 7.111 20.3 11.528 26.66 22.05 11.17 16.951-.36 36.501-11.43 51.082h-.03ZM527.553 153.798a504.833 504.833 0 0 0-15.492 10.717c3.28-11.919 6.431-14.711 15.492-10.717ZM357.796 490.394c9.126 4.319 14.355 5.845 15.979-8.606 5.066-45.204 57.809-79.757 97.365-65.143 16.336 6.007 27.573 16.561 29.457 35.039 1.884 18.413-8.249 27.538-25.235 20.362-10.132-4.287-10.035 1.039-12.471 7.371-14.095 36.599-47.838 55.986-92.429 53.518-32.346-1.786-59.237-24.81-67.454-58.097-1.526-6.202-1.754-12.762-2.566-18.997 3.443-41.762 24.131-72.158 61.641-88.427 20.298-8.801 43.324-11.594 65.246-16.432 13.608-3.02 17.862 6.462 20.396 17.276 2.663 11.236-4.807 13.931-13.316 15.945-10.392 2.468-20.655 5.391-31.048 7.729-20.687 4.676-37.997 14.938-52.19 30.655-18.642 20.622-15.102 57.577 6.625 67.839v-.032Zm-92.883 103.885c-6.918-9.223-14.712-15.328-13.77-19.42 1.234-5.228 9.515-12.145 14.744-12.145 4.839 0 12.828 7.794 13.511 12.924.584 4.384-7.243 9.873-14.453 18.641h-.032Zm-29.911 6.56c-5.814 4.156-11.27 10.748-17.538 11.593-3.994.552-9.126-7.437-13.737-11.593 5.034-5.196 9.288-12.438 15.426-14.776 3.573-1.364 10.165 5.098 15.394 8.021.162 2.241.292 4.481.455 6.689v.066Z"/><path fill="#9F66D3" d="M846.345 78.588c-30.203.065-60.439.097-90.643.162 11.107-1.007 22.247-2.046 33.354-3.053 6.56-.162 13.12-.324 19.713-.454 12.536 1.104 25.072 2.24 37.608 3.345h-.032Z"/><path fill="#260048" d="M1157.73 136.781c-13.54 7.567-13.12-4.578-15.52-11.495-3.61-10.36 4.81-7.47 9.84-8.119 1.88 6.527 3.8 13.087 5.68 19.614ZM1173.39 130.157c3.89.487 7.76 1.006 11.66 1.494-.49 1.428-.95 2.89-1.43 4.319-3.58-1.754-7.12-3.475-10.69-5.229l.46-.584ZM274.883 848.065c.975-2.598 1.949-5.164 2.923-7.762 1.299 1.819 2.599 3.638 3.93 5.489-2.273.779-4.547 1.526-6.82 2.305l-.033-.032ZM1158.22 149.609c.06-1.202.13-2.436.19-3.637 2.08-.975 4.19-1.981 6.27-2.956-2.14 2.209-4.28 4.417-6.43 6.658l-.03-.033v-.032ZM1180.95 120.447l-2.85 3.247c.94-1.071 1.91-2.143 2.85-3.247ZM1313.43 850.922c.32-1.006.68-2.013 1-3.02a5.313 5.313 0 0 1-1 3.02Z"/><path fill="#9F66D3" d="M1171.21 256.287c55.37-12.438 96.72 12.535 131.89 51.114 22.89 25.103 44.52 51.472 65.37 78.328 14.03 18.088 15.82 37.021 9.13 61.604-9.74-10.944-18.9-21.239-29.29-32.929v84.173c.55-.065 2.63.325 3.44-.52 4.9-5.001 9.16-13.964 14.32-14.483 5.2-.52 11.17 7.372 16.89 11.463 32.05 22.96 64.17 45.886 96.23 68.846 3.31 2.37 6.4 5.033 12.14 9.58-33.97 1.396-43.81 25.037-51.7 48.678-8.9 26.759 15.95 57.642 46.15 60.013 4.42.357 8.7 2.013 13.09 3.052-2.5 4.612-4.13 10.067-7.67 13.64-11.17 11.268-25.69 14.581-40.49 11.073-26.18-6.202-51.94-14.093-77.88-21.27-11.4-4.417-22.84-8.801-34.23-13.217-1.63-.877-3.25-1.754-4.88-2.598-70.8-33.124-143.35-48.939-220.19-22.278-.58-.617-1.2-1.201-1.78-1.786 13.25-54.459 12.34-108.399-9.26-160.552-7.34-17.764-19.55-33.449-28.09-50.79-3.02-6.105-5.13-16.335-2.08-21.206 39.33-62.837 44.65-132.007 39.04-203.191-1.5-18.77-5.62-37.345-8.03-56.083-1.39-10.879-5.78-11.041-13.51-5.326-6.49 4.806-13.41 8.963-21.63 12.275 9.06-22.894 20.95-43.807 40.66-59.362 1.04-.812 8.22 3.02 9.13 5.812 3.57 10.717 5.75 21.856 8.44 32.864l6.63 45.497c.26 2.143.49 4.286.75 6.43.06 2.208.16 4.384.22 6.592.65 15.133 1.27 30.266 1.92 45.399-.36 3.247-.71 6.462-1.07 9.71-.46.649-.36 1.169.29 1.623.16 2.598.33 5.164.46 7.762 11.91-3.28 23.8-6.592 35.72-9.872l-.13-.065Zm59.85 276.485c42.84-.292 68.92-18.737 78.05-53.972 8.47-32.766.42-60.792-22.41-84.952-28.78-30.461-64.44-44.847-106.14-42.185-6.17.39-15.62 7.762-16.88 13.412-1.86 8.184.9 18.186 13.93 19.258 9.06.746 18.02 3.507 26.89 5.845 25.75 6.852 48.91 17.926 62.84 42.184 13.09 22.797 4.97 50.303-16.72 59.038-6.73 2.696-10.82 3.15-11.44-6.397-2.37-36.534-25.81-57.155-56.9-69.82-26.95-10.976-61.12 5.131-67.12 30.786-1.56 6.689.84 16.497 5.19 21.692 3.05 3.605 14.03 4.482 18.87 1.819 9.45-5.163 10.13-.552 12.73 6.333 13.02 34.455 45.01 57.219 79.11 56.959Zm120.46 60.565c5.46-7.826 12.12-14.159 10.95-16.4-3.19-6.04-9.68-10.359-14.85-15.36-4.54 5.001-12.5 9.937-12.6 15.036-.09 4.513 8.61 9.157 16.53 16.724h-.03Zm65.18 4.773c-10.07-6.007-15.94-12.112-21.76-12.08-4.28 0-8.47 8.119-12.73 12.633 5.07 4.546 9.68 11.853 15.3 12.762 4.38.714 10.03-6.592 19.19-13.315ZM245.654 819.098c-11.367.13-22.701.195-29.229-13.282 49.04-18.023 95.937-41.86 148.646-43.905 21.468-.845 43.195 5.293 64.792 8.248 8.574 11.561 6.527 17.244-8.314 18.803-11.205 1.169-22.734.617-34.004-.26-34.75-2.696-67.714 4.351-99.671 17.374a3045.716 3045.716 0 0 0-13.38 4.221c-9.613 2.955-19.227 5.878-28.84 8.833v-.032ZM1259.12 760.579c1.01-.292 2.05-.617 3.06-.974 5.45 1.364 10.91 2.76 16.37 4.124 40.62 14.029 81.22 28.025 122.92 42.412-11.5 14.516-25.23 14.321-39.23 10.781-16.17-4.092-32.09-9.223-48.1-13.867-6.49-2.37-12.99-4.741-19.49-7.111-2.14-.91-4.32-1.819-6.46-2.696-20-2.013-39.98-4.351-60.02-5.845-6.82-.52-13.8 1.331-20.72 1.721-19.61 1.104-21.98-.942-25.65-21.271l.52-.519c10.42-1.559 20.88-3.085 31.3-4.644l1.5.195 1.43-.422c3.47-.228 6.92-.422 10.39-.65 1.95-.389 3.86-.812 5.81-1.201h26.41l-.04-.033Z"/><path fill="#9F66D3" d="M1220.77 198.353c-3.22 6.819-6.46 13.606-9.68 20.426-.49.26-.94.779-1.39.747-9.91-.39-19.85-.845-29.75-1.267 1.56-9.417 3.08-18.835 4.64-28.252.72-1.494 1.43-2.955 2.11-4.449.39-2.111.81-4.222 1.2-6.3l-.19-.065c1.62-3.28 3.25-6.592 4.9-9.872 1.95-3.702 3.93-7.437 5.88-11.139 1.79-2.695 3.57-5.423 5.36-8.119.91-1.169 1.79-2.338 2.69-3.507.69-.942 1.37-1.883 2.05-2.825 8.61-9.223 17.21-18.413 25.79-27.636 1.36.812 2.73 1.624 4.09 2.436.39 27.863-8.15 53.972-17.7 79.887v-.065ZM732.254 1170.24c17.635 36.92 48.098 36.86 78.074 37.64 30.398.78 57.776-5.94 76.223-36.5 2.631 21.53-3.183 33.84-21.532 41.6-39.167 16.59-78.983 14.74-117.631-1.85-16.076-6.92-18.966-16.5-15.134-40.86v-.03ZM594.52 304.738c-3.93-6.917-6.398-15.555-12.114-20.361-12.828-10.814-9.061-14.386 4.904-15.913 30.658 19.875 37.283 52.511 44.363 84.661 2.176 9.904 2.469 20.231 3.605 30.363-.324.357-1.006.812-.909 1.039.26.812.779 1.494 1.202 2.241.162 2.046.324 4.059.487 6.105a2216.993 2216.993 0 0 0-14.193 3.443c-.357-33.124-5.975-64.689-27.345-91.545v-.033Z"/><path fill="#260048" d="M1279.03 847.967c-.39-1.623-.81-3.28-1.2-4.903-.62-8.541-1.53-17.082-1.62-25.655 0-1.591 3.83-4.871 4.93-4.481 2.54.844 5.04 3.085 6.56 5.423 2.47 3.799 3.74 8.378 6.27 12.113 2.47 3.637 5.91 6.592 8.9 9.839-5.46 3.475-10.72 7.372-16.5 10.165-1.65.812-4.87-1.591-7.37-2.501h.03ZM1134.74 256.774c.36-3.248.71-6.463 1.07-9.71 4.84-1.039 9.65-2.111 14.49-3.15.22 2.046 1.2 5.553.55 5.878-5.2 2.663-10.69 4.741-16.08 6.982h-.03ZM1187.45 743.952c-6.59 11.236-13.58 8.346-23.9-3.02 10.26 1.267 17.11 2.111 23.96 2.955l-.06.065ZM1153.02 218.616v-11.333l3.54-.292c.36 3.799.72 7.631 1.07 11.431-1.52.065-3.08.13-4.61.194ZM274.494 810.297a3186.79 3186.79 0 0 0 13.38-4.221c-4.319 3.085-8.639 6.202-12.991 9.287-.129-1.721-.259-3.41-.357-5.098l-.032.032ZM1133.89 201.633c-.06-2.209-.16-4.384-.22-6.593 3.11 1.072 6.23 2.111 9.35 3.183-3.05 1.136-6.11 2.273-9.13 3.41ZM1261.46 818.026c-1.13-1.331-2.01-2.403-2.92-3.507 1.66-.682 3.28-1.721 5-1.916.55-.065 1.37 1.948 2.08 3.02-1.27.714-2.57 1.461-4.16 2.371v.032ZM1158.25 149.641l-5.94 5.456c-.59-.715-1.17-1.429-1.79-2.143 2.57-1.105 5.1-2.241 7.67-3.345l.03.032h.03Z"/><path fill="#9F66D3" d="M461.008 818.156c5.911 1.591 11.789 3.182 17.7 4.774 12.308.13 24.877 1.948 36.828-.033 13.154-2.208 25.657-8.086 38.55-12.048 6.658-2.046 13.576-4.708 20.331-4.611 5.066.097 10.035 4.222 15.069 6.527-3.572 4.027-6.43 10.424-10.815 11.723-55.178 16.465-110.129 34.001-166.086 47.315-27.67 6.593-57.776 6.56-75.866-23.998l-.292.227c14.225 2.111 28.482 4.157 42.707 6.365 26.663 4.124 48.39-5.488 67.227-23.641 4.644-4.449 9.775-8.411 14.679-12.6h-.032Z"/><path fill="#260048" d="M1288.13 793.216c2.14.909 4.32 1.818 6.46 2.695-2.14-.909-4.32-1.818-6.46-2.695ZM474.551 763.762c.584-.617 1.169-1.202 1.721-1.819.487.682 1.039 1.364 1.364 2.111.097.195-.714 1.072-.877 1.007-.779-.325-1.494-.845-2.241-1.299h.033ZM270.077 827.866c-.52.682-1.039 1.331-1.527 2.013-.552-.617-1.169-1.234-1.591-1.916-.097-.162.585-1.104.747-1.072.812.195 1.591.617 2.371.975ZM1158.06 174.062c.55.617 1.1 1.266 1.62 1.883-.75.423-1.49.91-2.27 1.202-.13.065-.91-.844-.81-1.039.35-.747.97-1.364 1.46-2.046ZM1179.43 191.371c-.52.682-1.04 1.331-1.53 2.013-.55-.617-1.17-1.234-1.59-1.916-.1-.162.58-1.104.75-1.072.81.195 1.59.617 2.37.975ZM1203.39 741.647l1.17.714-1.26.487.09-1.201ZM441.035 730.93l-.975-3.085c1.299.325 2.631.65 3.93.942-.974.714-1.981 1.429-2.955 2.111v.032ZM1135.49 266.126c-.17-2.598-.33-5.163-.46-7.761.16 2.565.33 5.163.46 7.761ZM1159.97 233.262l.46 1.299-1.2-.162.74-1.137Z"/><path fill="#9F66D3" d="M612.674 607.593c.228-.357.455-.747.682-1.104-.292.292-.552.617-.844.909l.162.162v.033Z"/><path fill="#260048" d="M274.883 815.363c-.194.325-.389.682-.584 1.007.195-.325.39-.682.552-1.007h.032ZM1187.51 743.887c.33.195.65.423 1.01.617-.36-.194-.71-.357-1.07-.552l.06-.065Z"/><path fill="#9F66D3" d="m1113.5 650.524-2.34.682c.2-.812.36-1.656.55-2.468.62.584 1.2 1.169 1.79 1.786Z"/><path fill="#260048" d="M1333.69 672.801c1.63.877 3.25 1.754 4.87 2.598-1.62-.877-3.24-1.753-4.87-2.598Z"/><path fill="#9F66D3" d="M635.571 386.736c-.423-.747-.942-1.462-1.202-2.241-.065-.227.585-.682.909-1.039.098 1.104.163 2.176.26 3.28h.033Z"/><path fill="#260048" d="m1216.48 762.43-1.43.422-1.49-.194c.97-.065 1.95-.163 2.92-.228ZM1186.67 185.558c-.72 1.494-1.43 2.955-2.11 4.449.71-1.494 1.43-2.955 2.11-4.449Z"/><path fill="#9F66D3" d="M501.149 233.847c-.195-.65-.487-1.299-.584-1.981 0-.26.422-.552.682-.844.357.941.324 1.883-.098 2.825Z"/><path fill="#260048" d="M1181.77 767.821c-.43-.552-.85-1.104-1.27-1.656.58.389 1.17.747 1.78 1.136l-.51.52Z"/><path fill="#9F66D3" d="M336.687 847.772c-.39-.227-.812-.422-1.104-.714-.13-.13 0-.552 0-.812.292.585.552 1.169.844 1.754l.26-.228ZM375.464 109.958c30.236 25.33 46.442 55.563 56.867 89.012 1.981 6.397 1.299 18.218-2.696 20.978-9.321 6.43-28.06-1.429-32.769-10.522-15.686-30.266-22.084-62.415-21.434-99.468h.032Z"/><path fill="#260048" d="M1278.55 763.729c-5.46-1.364-10.92-2.76-16.37-4.124.84-4.092-.62-12.048 7.3-4.384 2.96 2.89 6.05 5.683 9.03 8.508h.04ZM805.619 746.128c-4.222-30.526-3.832-59.785-13.023-85.667-10.068-28.382 3.865-51.179 7.307-76.347.715-5.131 7.405-9.45 11.334-14.126 3.475 4.903 8.444 9.352 10.166 14.84 5.358 16.92 10.717 34.001 13.543 51.44 1.071 6.689-5.294 14.321-7.178 21.79-6.17 24.583-11.789 49.328-17.732 73.976-.942 3.962-2.468 7.827-4.449 14.062l.032.032ZM1065.6 233.555s17.96 3.085 4.64 15.88c-12.31 11.788-4.55 32.961-10.23 55.238-2.14 28.253-24.94 64.364-37.54 82.875-9.03 3.182-18.03 6.364-27.057 9.514-.649-10.489-3.28-21.335-1.624-31.402 6.981-42.054 23.351-79.432 51.021-110.737 2.86-3.248 19.52-16.595 20.79-21.401v.033ZM574.547 232.028c28.547 49.524 46.734 107.75 47.286 164.223-8.184-1.592-17.927-.682-24.228-5.294-10.49-7.696-18.804-18.9-28.027-28.642-15.102-42.769-23.384-85.05-17.408-126.227 1.624-11.269 16.693-13.932 22.377-4.06ZM912.89 944.091c6.43 7.274 14.647 13.314 13.64 16.107-2.241 6.398-8.996 11.236-13.9 16.692-4.774-5.586-11.334-10.587-13.51-17.049-.942-2.76 7.274-8.606 13.737-15.717l.033-.033ZM702.083 941.915c7.372 9.613 13.543 14.874 15.297 21.336.649 2.435-9.549 11.301-13.803 10.651-5.618-.844-12.731-7.436-14.42-12.989-1.104-3.605 6.366-9.808 12.926-18.998ZM1231.06 532.772c-34.13.228-66.09-22.537-79.11-56.959-2.6-6.885-3.28-11.496-12.73-6.333-4.84 2.663-15.82 1.786-18.87-1.819-4.38-5.195-6.79-14.97-5.19-21.692 6-25.655 40.17-41.762 67.12-30.786 31.09 12.665 54.53 33.254 56.9 69.82.62 9.547 4.71 9.093 11.44 6.397 21.69-8.735 29.78-36.241 16.72-59.038-13.9-24.258-37.09-35.332-62.84-42.184-8.87-2.371-17.83-5.099-26.89-5.845-13.03-1.072-15.79-11.074-13.93-19.258 1.26-5.65 10.71-13.022 16.88-13.412 41.7-2.662 77.36 11.724 106.14 42.185 22.83 24.16 30.88 52.186 22.41 84.952-9.13 35.235-35.21 53.68-78.05 53.972Zm-53.78-70.664c-.91 2.306-1.78 4.612-2.69 6.917 7.63 7.08 15.03 14.451 23.06 21.011 1.81 1.494 5.91.228 8.96.228-.26-2.956.55-6.885-1.04-8.736-6.17-7.177-12.83-13.964-19.94-20.199-1.46-1.267-5.52.422-8.38.779h.03ZM300.443 455.841c3.442-41.762 24.13-72.158 61.641-88.428 20.298-8.8 43.324-11.593 65.245-16.432 13.608-3.02 17.863 6.463 20.396 17.277 2.663 11.236-4.807 13.931-13.316 15.945-10.392 2.468-20.655 5.39-31.047 7.728-20.688 4.677-37.998 14.939-52.191 30.656-18.641 20.621-15.101 57.577 6.626 67.839 9.126 4.319 14.354 5.845 15.978-8.606 5.067-45.204 57.809-79.757 97.366-65.143 16.336 6.008 27.572 16.562 29.456 35.04 1.884 18.412-8.249 27.538-25.234 20.361-10.133-4.287-10.036 1.039-12.471 7.372-14.095 36.598-47.839 55.985-92.429 53.517-32.347-1.786-59.238-24.81-67.455-58.096-1.526-6.203-1.753-12.763-2.565-18.998v-.032Zm137.149 9.093c-1.072-1.007-3.637-3.735-3.832-3.573-6.95 5.781-14.225 11.399-20.136 18.186-1.656 1.883.812 7.372 1.397 11.204 6.268-5.131 12.861-9.938 18.674-15.523 2.078-1.981 2.306-5.878 3.897-10.294ZM1223.63 708.653c-.91.714-1.82 1.429-2.76 2.143.09-1.396.19-2.825.32-4.222.88.617 1.69 1.332 2.44 2.079ZM470.329 701.509c-1.267-2.176-2.501-4.352-3.768-6.495 1.267 2.175 2.501 4.351 3.768 6.495ZM266.959 594.279c9.309 0 16.856-7.546 16.856-16.855 0-9.308-7.547-16.854-16.856-16.854-9.309 0-16.855 7.546-16.855 16.854 0 9.309 7.546 16.855 16.855 16.855Z"/><path fill="#260048" d="M1571.42 583.562c-51.6-36.436-102.85-73.392-154.46-109.795-7.86-5.553-9.51-10.295-6.07-19.907 10.72-29.909 10.75-59.46-9-86.414-40.43-55.109-83.07-107.912-145.07-141.003-2.89-1.526-3.22-7.794-4.78-11.853.59-.682.88-1.494.88-2.436 3.15-7.371 6.59-14.613 9.36-22.082 13.44-36.631 13.44-74.886 13.02-113.108-.1-9.905-1.72-19.777-2.66-29.682-5.33 3.086-14.39 6.073-24.33 14.419-22.47 18.867-44.2 38.579-66.22 57.967l-1.1.811c-.95 1.072-1.92 2.176-2.86 3.248-1.56 2.143-3.15 4.319-4.71 6.462 3.9.487 7.76 1.007 11.66 1.494-.49 1.429-.94 2.89-1.43 4.319-3.57-1.754-7.11-3.475-10.69-5.228-2.76 4.091-5.48 8.183-8.21 12.275a948.028 948.028 0 0 0-6.43 6.657c-1.98 1.819-3.97 3.637-5.95 5.456a109.08 109.08 0 0 0-1.78-2.143c2.56-1.105 5.1-2.241 7.66-3.345.07-1.202.13-2.436.2-3.637l-.69-9.191c-13.54 7.567-13.12-4.578-15.52-11.496-3.6-10.359 4.81-7.469 9.84-8.118-6.88-22.115-13.87-44.23-20.59-66.41-2.37-7.859-5.78-8.573-12.66-4.124-37.16 24.096-69.54 53.29-94.54 89.921-5.33 7.826-8.68 9.255-17.64 5.618-61.771-24.908-126.269-36.858-192.782-38.255-70.02-1.493-137.636 10.392-202.947 35.657-6.138 2.371-11.822 6.398-17.798-2.663-27.02-40.852-64.791-70.306-106.881-98.202-10.23 34.098-20.265 67.449-30.268 100.8-3.995 9.45-6.398 4.514-9.581-.747-22.831-37.475-56.444-63.39-92.526-86.868-12.081-7.86-13.738-4.58-15.199 8.475-5.878 52.349 4.059 102.164 21.402 151.038 2.176 6.138 6.301 11.366-2.955 15.88-51.541 25.103-86.486 68.813-123.737 110.153-32.152 35.689-45.272 75.21-30.593 122.363 1.202 3.832-.909 11.236-4.027 13.476-49.43 35.82-98.795 71.704-149.166 106.126-25.56 17.471-32.347 36.339-15.556 62.676 11.27 17.666 24.422 34.455 38.55 49.945 20.752 22.797 35.984 52.154 68.785 61.766 1.982.584 3.313 3.929 4.677 6.17 12.406 20.167 24 40.853 37.283 60.435 18.772 27.635 53.295 38.936 85.869 29.616 1.884-.649 3.767-1.299 5.683-1.948.975-2.598 1.949-5.164 2.923-7.762 1.299 1.819 2.599 3.637 3.93 5.489 1.949-.715 3.93-1.462 5.878-2.176l12.959 7.501c12.373 15.425 24.649 30.916 37.121 46.276 3.669 4.514 8.768 8.086 11.464 13.055 8.249 15.165 15.296 30.98 23.416 46.243 93.663 176.104 237.535 294.284 422.458 364.584 7.567 2.89 18.316 2.41 25.949-.65 59.335-23.67 116.689-51.4 170.048-86.86 101.811-67.65 182.291-154.97 243.481-260.739 19.09-32.994 28.54-72.613 62.9-95.962 4.84-3.28 6.86-10.749 10.17-16.269 1.95-3.28 3.86-6.56 5.81-9.84.33-1.007.69-2.014 1.01-3.02 5.52-.163 11.07-.812 16.53-.357 16.47 1.396 33.19 5.975 49.27 4.286 24.94-2.63 42.58-18.835 56.99-39.034 20.01-28.058 36.31-57.155 66.29-79.562 32.67-24.42 55.93-62.22 80.74-96.059 13.31-18.185 5.29-40.82-12.86-53.647l.06-.065Zm-336.65-371.408c1.26 3.735 1.91 6.463 2.08 8.476-.17-2.013-.82-4.774-2.08-8.476Zm-36.31-54.005c1.78-2.695 3.57-5.423 5.36-8.118.91-1.169 1.78-2.338 2.69-3.54.68-.942 1.37-1.883 2.05-2.825 8.6-9.223 17.21-18.413 25.79-27.636 1.36.812 2.72 1.624 4.09 2.436.39 27.863-8.15 53.972-17.7 79.887-3.22 6.819-6.47 13.606-9.68 20.426.78.747 1.56 1.526 2.37 2.306-.78-.78-1.59-1.527-2.37-2.306-.46.26-.94.779-1.4.747-9.9-.39-19.84-.845-29.75-1.267 1.56-9.417 3.09-18.835 4.65-28.252.71-1.494 1.43-2.955 2.14-4.449.39-2.111.81-4.222 1.2-6.3l-.19-.065c1.62-3.28 3.25-6.592 4.87-9.872 1.95-3.702 3.93-7.437 5.88-11.139-6.92.357-13.87.714-20.79 1.072 1.79.649 2.76 1.753 3.25 3.085-.49-1.332-1.46-2.403-3.25-3.085 6.92-.358 13.87-.715 20.79-1.072v-.033Zm-21.4 32.247c.81.195 1.59.617 2.37.975-.52.682-1.01 1.364-1.53 2.013-.55-.617-1.17-1.234-1.59-1.916-.1-.162.58-1.104.75-1.072Zm-16.63 44.165-1.2-.162.74-1.137.46 1.299Zm-2.37-60.499c.55.617 1.1 1.266 1.65 1.883-.74.423-1.49.91-2.27 1.202-.13.065-.91-.844-.81-1.039.36-.747.97-1.364 1.46-2.046h-.03Zm-5.04 33.221 3.54-.292 1.07 11.431-4.61.195v-11.334Zm-777.556-97.325c30.236 25.33 46.442 55.563 56.867 89.012 1.981 6.397 1.299 18.218-2.696 20.978-9.321 6.43-28.06-1.429-32.769-10.522-15.686-30.266-22.084-62.415-21.434-99.468h.032ZM118.93 695.014c-5.034-5.229-7.015-11.204 4.319-12.958 34.913-5.455 52.58-22.829 53.782-51.958 1.202-28.383-16.92-50.887-49.657-60.37 41.57-29.422 82.426-58.356 123.607-87.486 3.15 4.287 6.56 8.898 12.503 16.984 2.079-29.811 3.897-55.758 5.684-81.705-1.202-.909-2.371-1.786-3.573-2.695-9.256 8.865-18.512 17.698-29.716 28.447-5.976-20.004-4.19-38.059 5.586-52.705 32.931-49.394 71.838-93.754 123.282-124.669 26.144-15.685 55.08-18.283 84.115-5.423 4.416 1.948 9.028 3.669 13.737 4.838 11.789 2.891 16.791.325 17.343-14.093 1.461-36.047 5.586-72.028 8.639-108.01 3.15-10.846 5.813-21.92 9.775-32.441 1.169-3.118 8.769-7.08 8.996-6.852 15.167 17.73 30.886 35.234 39.135 60.889-29.976-18.608-30.593-18.738-37.673 13.509-3.8 17.309-5.132 35.17-7.567 52.803.357.942.324 1.884-.098 2.825 1.819 27.993 2.176 56.181 5.814 83.946 4.611 35.137 17.959 67.612 35.399 98.56 2.793 4.968 2.241 14.905-.974 19.711-44.331 66.573-56.25 133.534-36.634 213.356-16.888-3.312-33.386-7.339-50.144-9.71-60.05-8.475-115.422 9.385-170.048 31.078-31.47 12.503-63.005 24.811-94.54 37.183-9.646.942-19.421 1.332-28.97 2.955-17.31 2.891-30.788-4.221-42.09-15.944l-.032-.065Zm358.479 92.519s.454-.585.422-.585c15.199-27.44 7.275-53.55-4.579-79.464-.975-1.981-1.949-3.995-2.923-5.976a1617.207 1617.207 0 0 1-3.768-6.494c-3.28-4.254-6.56-8.509-9.84-12.795 18.544-3.897 34.49 2.305 48.748 13.379 49.234 38.32 31.924 99.793-12.926 121.973l-7.048-2.63-21.337-1.754s-.13 0-.292.065c.877-1.494 1.721-2.955 2.598-4.449 2.014-2.662 3.995-5.358 6.008-8.021 1.657-4.416 3.313-8.865 4.969-13.282l-.032.033Zm-2.858-23.771c.584-.617 1.169-1.234 1.721-1.819.487.682 1.039 1.364 1.364 2.111.097.195-.714 1.071-.877 1.007-.779-.325-1.494-.845-2.241-1.299h.033Zm-270.792 7.566c-8.996 4.936-16.238-1.526-19.746-10.197-2.176-5.391-2.273-11.626-3.312-17.503l6.398-.293c1.104-.195 2.208-.357 3.312-.552 3.053 2.014 6.138 3.995 9.191 6.008 1.559 7.859 6.268 21.368 4.157 22.537Zm45.987-47.185c11.854-5.456 19.324-5.228 19.097 10.619-.033 2.988 1.786 6.008 4.157 13.379 3.54-9.482 7.242-15.068 7.502-20.848.649-14.808 9.321-19.647 22.117-23.122 10.685-2.89 18.446-4.514 22.181 8.801.845 2.988 5.164 5.001 7.86 7.436 1.429-3.052 4.157-6.17 4.027-9.19-.487-12.535 1.786-23.349 16.271-25.395 14.095-1.981 28.352-2.468 33.808 15.523.812 2.663 3.053 4.904 6.69 10.554.845-6.657 1.494-9.515 1.494-12.372 0-4.514-.487-9.028-.779-13.542 5.683 1.266 13.478.649 16.66 4.189 10.62 11.756 19.616 25.005 29.229 37.67 1.299.325 2.631.65 3.93.942-.974.714-1.981 1.429-2.955 2.143l-.39 3.767c-19.324-2.435-38.615-6.884-57.939-6.884-47.935-.033-92.948 14.678-137.474 30.948-24.325 8.898-26.631 7.761-35.497-18.056 13.348-5.456 26.891-10.522 40.011-16.53v-.032Zm190.509 13.055a1023.552 1023.552 0 0 0-5.261 6.17c1.754-2.046 3.507-4.092 5.261-6.17ZM268.55 829.879c-.552-.617-1.169-1.234-1.591-1.916-.097-.162.585-1.104.747-1.071.812.194 1.591.616 2.371.974-.52.682-1.007 1.364-1.527 2.013Zm19.292-23.803c-4.32 3.085-8.639 6.202-12.991 9.287-.195.325-.39.682-.585 1.007.195-.325.39-.682.553-1.007-.13-1.689-.26-3.377-.358-5.066-9.613 2.955-19.226 5.878-28.839 8.833-11.367.13-22.701.163-29.229-13.282 49.04-18.023 95.936-41.859 148.646-43.905 21.467-.844 43.194 5.293 64.791 8.248 8.574 11.561 6.528 17.244-8.314 18.803-11.204 1.169-22.701.617-34.003-.26-34.75-2.695-67.714 4.352-99.671 17.374v-.032Zm47.708 40.982v-.812l.585 1.267a2.695 2.695 0 0 1-.585-.422v-.033Zm243.056-22.57c-55.178 16.465-110.128 34.001-166.086 47.315-27.573 6.56-57.581 6.56-75.671-23.738 14.095 2.078 28.19 4.124 42.252 6.3 26.664 4.124 48.391-5.488 67.227-23.642a89.256 89.256 0 0 1 3.638-3.312c15.394 2.89 40.076-1.461 50.858-3.637 4.969.065 9.906-.097 14.712-.909 13.154-2.209 25.657-8.086 38.55-12.048 6.658-2.046 13.576-4.741 20.331-4.612 5.066.098 10.035 4.19 15.069 6.528-3.572 4.027-6.43 10.424-10.815 11.723l-.065.032Zm142.541 296.232c-18.609-22.8-29.846-48.03-34.231-78.43 34.133 9.71 50.404 48.68 34.231 78.43Zm127.829-70.54c-1.235-1.78-8.314-2.07-10.328-.32-14.257 12.37-45.208 12.7-59.238.29-2.63-2.34-6.593-3.15-9.938-4.67-1.201 2.72-2.013 5.71-3.734 8.08-5.976 8.28-12.277 16.34-18.48 24.49-4.936-5.07-10.425-9.74-14.614-15.36-3.086-4.13-6.301-8.61 3.54-11.01 20.103-4.91 39.556-12.41 59.627-17.57 6.95-1.79 15.102-.75 22.312.75 23.058 4.77 45.922 10.39 71.286 16.23-5.359 10.2-10.75 20.37-18.414 34.91-8.931-14.84-14.94-25.72-22.052-35.85l.033.03Zm9.32 107.01c-3.54 9.54-18.154 17.31-29.391 21.01-10.717 3.57-23.806 2.53-35.367.58-33.484-5.65-37.511-15.59-35.27-39.78 1.494-19.94-2.826-39.03 19.713-46.27 25.917-8.32 53.067-10.88 73.788 7.92 15.621 14.16 13.347 38.12 6.527 56.5v.04Zm6.755 55.79c-39.167 16.59-78.983 14.74-117.63-1.85-16.076-6.92-18.967-16.5-15.135-40.86 17.635 36.93 48.099 36.86 78.075 37.64 30.398.78 57.776-5.94 76.223-36.5 2.63 21.53-3.183 33.84-21.533 41.6v-.03Zm27.768-89.76c-7.664-27.73-2.89-50.82 12.601-70.7 4.45-5.68 15.622-6.14 27.93-10.45-11.464 31.59-17.505 59.13-40.531 81.12v.03Zm87.07-315.001c-6.04 10.879-8.086 23.998-11.464 34.552-21.792-36.955-16.563-78.652-13.9-120.024.617-9.775 4.612-16.237 15.037-20.264 35.008-13.542 49.138-46.114 35.528-81.738-3.44-9.028-3.05-14.386 4.78-19.939 3.83-2.696 7.11-6.82 9.35-11.009 5.26-9.905-.68-21.985-11.37-20.394-12.729 1.884-27.701 5.131-36.599 13.315-19.974 18.38-35.108 40.917-37.414 69.819-1.169 14.906-5.845 16.465-18.479 7.664-19.648-13.671-25.851-47.639-13.835-75.697 13.705-32.02 43.162-50.238 80.38-49.199 9.191.26 18.577 3.02 19.717-11.203 1.04-13.152-4.908-22.472-17.054-23.122-15.881-.844-32.834-.617-47.838 3.962-66.058 20.166-91.455 89.921-74.34 145.322 6.886 22.213 20.98 39.391 42.675 48.224 12.016 4.904 13.867 11.626 12.763 23.414-2.176 23.544-4.611 47.445-2.728 70.859 1.234 15.523 9.581 30.526 15.037 45.659 14.257 39.424 26.598 78.88 14.842 121.681-14.55 52.899-69.403 70.829-111.948 35.851-4.416-3.637-7.469-8.962-11.139-13.509 5.099-2.37 10.035-5.163 15.296-7.014 11.66-4.092 23.903-6.722 35.173-11.659 36.244-15.912 45.532-64.591 32.542-96.708-4.287-10.619-18.577-20.036-30.366-24.258-40.239-14.354-81.842-13.932-122.827-2.663-29.23 8.054-39.2 21.693-41.895 50.562-2.793 29.779 4.741 55.239 32.249 70.405 13.088 7.209 27.833 11.593 42.155 16.334 9.418 3.15 12.926 5.943 4.709 14.841-32.25 34.947-95.287 23.867-113.506-19.485-10.133-24.161-10.296-49.068-5.359-73.262 5.099-25.005 13.835-49.588 23.611-73.261 13.737-33.254 11.724-66.735 5.131-100.411-2.761-14.159-.942-21.92 13.543-28.837 36.211-17.276 47.643-49.491 46.279-87.388-2.241-62.675-52.125-111.484-111.493-109.276-4.741.162-9.873.812-14.095 2.76-11.301 5.196-12.211 15.393-11.107 26.207 1.202 11.788 10.848 10.002 17.375 8.995 49.203-7.696 90.708 43.743 77.555 95.377-1.656 6.56-4.352 14.094-9.094 18.283-6.982 6.203-16.27 9.84-24.584 14.549-2.404-7.404-5.229-14.711-7.145-22.245-6.203-24.453-14.615-47.542-34.686-64.526-18.089-15.296-41.537-16.367-55.6-1.397-7.242 7.697-12.731 17.374-5.326 27.701 6.333 8.8 15.459 8.508 24.715 3.864 2.273-1.136 4.904-1.591 7.405-2.338-1.657 15.393-4.71 30.786-4.645 46.178.098 26.077 16.011 40.788 39.135 49.978 5.164 2.046 11.432 8.119 12.276 13.152 6.723 40.138 12.341 80.504-9.84 117.947-8.607-17.796-16.499-36.859-26.696-54.557-12.114-21.011-26.241-40.853-39.46-61.182-40.725-62.642-48-130.903-31.535-202.119 4.385-18.998 13.446-37.54 23.546-54.395 11.075-18.477 14.16-35.819 4.222-54.946-18.252-35.17-34.945-70.956-36.634-111.387-.974-23.478-.194-47.022-.194-70.534 1.688-1.623 3.377-3.215 5.066-4.838 1.981 4.286 3.994 8.573 5.976 12.86 11.204 11.56 22.441 23.121 33.646 34.682 30.658 19.907 37.283 52.511 44.363 84.66 2.176 9.905 2.468 20.232 3.605 30.364.097 1.104.162 2.176.26 3.28.162 2.046.324 4.059.487 6.105.26.487.422 1.007.747 1.429 5.066 6.365-6.074 20.458 9.548 21.303 10.003.552 29.261-17.406 28.06-27.538-2.176-17.991 8.022-23.577 22.052-24.811 21.791-1.916 43.713-2.728 65.57-3.02 29.424-.389 59.108 2.631 88.207-.389 26.858-2.761 52.742-2.176 78.302 5.228 4.774 1.396 8.801 8.735 11.139 14.191 2.858 6.625 1.299 16.659 5.749 20.784 7.469 6.884 18.219 10.261 27.572 15.1 2.014-8.768 5.489-17.503 5.846-26.336 1.234-30.591 3.897-61.052 24.225-85.505 10.72-12.892 25.43-22.472 38.33-33.546 7.56-12.925 15.16-25.882 22.73-38.807 2.99-1.883 3.21-3.669 6.17-5.553.71 2.923 4.77 5.748 4.81 8.671.65 57.252-5.43 112.88-35.31 163.832-13.25 22.602-11.36 44.62 3.41 68.391 12.18 19.615 20.11 43.223 24.36 66.085 11.99 64.397 2.21 125.773-32.51 182.408-18.9 30.818-37.671 61.734-55.176 93.363l-.065.098Zm-15.523-146.037c2.955-10.424 5.878-20.686 9.223-32.409 10.522 21.108 7.827 29.422-9.223 32.409Zm-311.745 4.254c-16.823-6.657-19.584-16.854-14.939-33.675 5.391 12.177 9.548 21.497 14.939 33.675Zm633.789 184.032c-1.66.812-4.88-1.591-7.38-2.501-19.13 26.792-47.45 30.266-75.44 23.966-45.57-10.229-90.25-24.485-135.23-37.28-11.37-3.248-22.67-6.885-33.65-11.269-4.22-1.688-7.44-5.91-11.11-8.963 6.04-3.02 12.99-9.644 18-8.41 20.33 5.001 40.17 12.112 59.98 19.029 11.72 4.092 22.08 3.443 31.34-5.293-33.39-9.287-55.96-41.145-52.51-74.106 3.79-36.404 35.1-63 79.4-66.312-16.82 18.997-27.51 39.813-30.82 64.428-3.96 29.26 7.73 52.609 25.27 74.237 4.71 3.377 9.97 6.202 13.99 10.229 28.03 28.025 62.81 34.358 99.16 17.828 3.24-1.494 6.95-2.013 10.45-2.987-.61-8.541-1.52-17.082-1.62-25.655 0-1.591 3.83-4.871 4.94-4.481 2.53.844 5.03 3.085 6.56 5.423 2.47 3.799 3.73 8.378 6.26 12.113 2.47 3.637 5.92 6.592 8.9 9.839-5.45 3.475-10.71 7.372-16.49 10.165Zm-122.9-109.536 23.97 2.955c.33.195.65.423 1.01.617-.36-.194-.72-.357-1.07-.552-6.6 11.236-13.58 8.346-23.91-3.02Zm95 73.587c1.65-.682 3.28-1.721 5-1.916.55-.065 1.36 1.948 2.08 3.02-1.27.714-2.57 1.461-4.16 2.371-1.14-1.332-2.01-2.404-2.92-3.508v.033Zm103.7 2.403c-16.18-4.092-32.09-9.223-48.1-13.867-6.5-2.37-12.99-4.741-19.49-7.111-2.14-.91-4.32-1.819-6.46-2.696-20.01-2.013-39.98-4.351-60.02-5.845-6.82-.52-13.8 1.331-20.72 1.721-19.61 1.104-21.99-.942-25.65-21.271-.43-.552-.85-1.104-1.27-1.656.58.39 1.17.747 1.78 1.137 10.46-1.527 20.89-3.085 31.31-4.644.98-.065 1.95-.162 2.93-.227 3.47-.228 6.91-.423 10.39-.65 1.95-.39 3.86-.812 5.81-1.201h26.4c1.01-.293 2.05-.617 3.06-.975.84-4.091-.62-12.048 7.3-4.384 2.96 2.891 6.05 5.683 9.03 8.509 40.63 14.028 81.23 28.025 122.93 42.411-11.5 14.516-25.24 14.321-39.23 10.781v-.032Zm-158.91-74.074.09-1.201 1.17.682-1.26.519Zm198.79 3.702c-3.61 8.736-5.3 21.109-20.53 16.27-29.13-9.255-58.2-18.803-87.69-26.791-10.68-2.891-22.5-1.624-33.77-2.274-6.89-1.883-13.77-3.799-20.66-5.683l-25.98.228c-12.57 2.176-25.13 4.351-42.9 7.436 9.71-15.068 17.18-28.739 26.86-40.625 3.47-4.254 12.21-4.222 18.58-6.138l5.19 17.601c.88.617 1.69 1.332 2.44 2.079 7.86-8.866 9.45-23.544 26.6-23.447 22.18.13 30.82 9.84 24.45 35.949 7.15-3.832 12.63-5.942 17.05-9.417 3.83-3.02.39-15.068 11.11-9.548 11.11 5.716 29.62.39 31.11 21.174.49 6.787 4.19 13.314 6.4 19.874 10.78-5.423-2.37-31.565 21.86-20.199 9.45 3.767 18.87 7.631 28.41 11.204 6.01 2.273 16.01 1.299 11.47 12.307Zm14.48 23.869c-2.95-.422-7.76-3.865-7.79-5.975-.16-10.132 10.49-20.849 22.47-20.751.75.584 5.49 2.468 5.82 4.968 1.1 8.216-12.83 22.862-20.5 21.758Zm74.6-71.606c-11.17 11.269-25.69 14.581-40.5 11.074-26.17-6.203-51.93-14.094-77.88-21.271-11.4-4.416-22.83-8.8-34.23-13.217-1.62-.877-3.24-1.753-4.87-2.63-70.8-33.124-143.35-48.939-220.19-22.278l-2.34.682c.2-.811.36-1.656.55-2.468 13.25-54.491 12.34-108.399-9.25-160.585-7.34-17.763-19.55-33.448-28.13-50.789-3.02-6.106-5.13-16.335-2.08-21.206 39.33-62.838 44.66-132.008 39.04-203.191-1.49-18.771-5.62-37.346-8.02-56.083-1.4-10.879-5.78-11.042-13.51-5.326-6.5 4.806-13.41 8.963-21.63 12.275 9.06-22.894 20.95-43.808 40.66-59.363 1.04-.812 8.22 3.02 9.13 5.813 3.57 10.716 5.74 21.855 8.44 32.864 2.21 15.165 4.42 30.331 6.62 45.496.75-1.006 1.69-2.078 2.7-3.15-1.01 1.104-1.95 2.176-2.7 3.15.26 2.144.49 4.287.75 6.43 3.12 1.072 6.24 2.111 9.36 3.183-3.06 1.136-6.11 2.273-9.13 3.409.65 15.133 1.27 30.266 1.92 45.399 4.83-1.039 9.64-2.11 14.48-3.15.23 2.046 1.2 5.554.55 5.878-5.19 2.663-10.68 4.742-16.07 6.982-.46.65-.36 1.169.29 1.624.16 2.598.32 5.163.45 7.761 11.92-3.28 23.81-6.592 35.73-9.872 55.37-12.437 96.71 12.535 131.89 51.115 22.89 25.102 44.52 51.471 65.37 78.327 14.03 18.089 15.82 37.021 9.13 61.604-9.75-10.944-18.9-21.238-29.3-32.929v84.173c.56-.064 2.63.325 3.45-.519 4.9-5.001 9.15-13.964 14.32-14.484 5.19-.519 11.17 7.372 16.89 11.464 32.05 22.959 64.17 45.886 96.22 68.845 3.32 2.371 6.4 5.034 12.18 9.58-33.97 1.396-43.81 25.038-51.7 48.679-8.9 26.759 15.95 57.642 46.15 60.012 4.42.358 8.7 2.014 13.09 3.053-2.5 4.611-4.13 10.067-7.67 13.639h-.16Z"/><path fill="#fff" d="M625.698 1209.89c-.617 0-1.202-.16-1.754-.52-157.35-101.8-247.733-298.403-248.61-300.384-.747-1.623 0-3.572 1.624-4.286 1.624-.747 3.572 0 4.287 1.623.877 1.949 90.545 196.887 246.239 297.627 1.494.97 1.948 2.99.974 4.48a3.198 3.198 0 0 1-2.728 1.5l-.032-.04Z"/><path fill="#9F66D3" d="M777.981 941.948c9.309 0 16.856-10.09 16.856-22.537s-7.547-22.537-16.856-22.537c-9.309 0-16.855 10.09-16.855 22.537s7.546 22.537 16.855 22.537ZM99.536 632.933c3.172-9.265 1.644-18.179-3.413-19.91-5.057-1.731-11.728 4.376-14.9 13.641-3.172 9.264-1.644 18.178 3.413 19.909 5.056 1.731 11.728-4.376 14.9-13.64ZM1537.3 632.925c3.17-9.265 1.64-18.179-3.41-19.91-5.06-1.731-11.73 4.376-14.9 13.64-3.18 9.265-1.65 18.179 3.41 19.91 5.06 1.731 11.73-4.376 14.9-13.64ZM835.108 941.948c9.309 0 16.855-10.09 16.855-22.537s-7.546-22.537-16.855-22.537c-9.309 0-16.856 10.09-16.856 22.537s7.547 22.537 16.856 22.537Z"/><path fill="#260048" d="M220.582 616.069c9.309 0 16.856-7.546 16.856-16.854 0-9.309-7.547-16.855-16.856-16.855-9.309 0-16.855 7.546-16.855 16.855 0 9.308 7.546 16.854 16.855 16.854Z"/><path fill="#9F66D3" d="M1043.22 466.362c-14.78-23.771-16.66-45.788-3.41-68.39 29.88-50.952 35.95-106.581 35.3-163.833-.03-2.923-1.33-5.845-2.08-8.735-1.26.811-2.56 1.623-3.83 2.435l1.1-2.338s-38.58 19.387-65.6 76.087c-.55.617-1.1 1.202-1.62 1.819-20.333 24.453-22.996 54.914-24.23 85.504-.357 8.833-3.8 17.569-5.846 26.337-9.353-4.839-20.103-8.216-27.572-15.101-4.45-4.091-2.891-14.158-5.749-20.783-2.371-5.456-6.365-12.827-11.139-14.191-25.56-7.404-51.444-8.021-78.302-5.229-29.099 3.02-58.783 0-88.207.39-21.889.292-43.811 1.104-65.57 3.02-14.03 1.234-24.228 6.82-22.052 24.81 1.234 10.1-18.057 28.091-28.06 27.539-13.218-.747-7.275-10.944-8.217-17.926v.065c-9.353-136.132-90.448-176.822-90.448-176.822-1.688 1.623-3.377 3.214-5.066 4.838 0 23.512-.812 47.055.195 70.534 1.689 40.431 18.414 76.217 36.634 111.387 9.938 19.16 6.852 36.468-4.222 54.946-10.101 16.854-19.162 35.397-23.546 54.395-16.466 71.216-9.191 139.476 31.535 202.119 13.218 20.362 27.345 40.203 39.459 61.182 10.23 17.731 18.122 36.761 26.696 54.556 22.182-37.41 16.563-77.775 9.841-117.946-.845-5.033-7.113-11.106-12.277-13.152-23.123-9.158-39.037-23.901-39.134-49.978-.065-15.393 2.988-30.785 4.644-46.178-2.468.747-5.099 1.201-7.405 2.338-9.255 4.676-18.381 4.968-24.714-3.865-7.405-10.326-1.917-19.971 5.326-27.7 14.062-14.971 37.51-13.931 55.6 1.396 20.103 16.984 28.482 40.106 34.685 64.527 1.916 7.534 4.742 14.84 7.145 22.244 8.314-4.741 17.57-8.345 24.585-14.548 4.742-4.222 7.437-11.756 9.094-18.283 13.153-51.634-28.353-103.106-77.555-95.377-6.528 1.039-16.173 2.793-17.375-8.995-1.104-10.814-.195-21.011 11.107-26.207 4.254-1.948 9.353-2.598 14.095-2.76 59.4-2.208 109.284 46.6 111.493 109.276 1.364 37.897-10.068 70.112-46.28 87.388-14.517 6.917-16.336 14.678-13.543 28.837 6.593 33.708 8.607 67.157-5.131 100.41-9.775 23.674-18.512 48.257-23.611 73.262-4.936 24.193-4.774 49.101 5.359 73.262 18.187 43.352 81.257 54.422 113.507 19.485 8.216-8.898 4.709-11.724-4.71-14.841-14.289-4.741-29.066-9.125-42.154-16.335-27.508-15.198-35.043-40.625-32.25-70.404 2.696-28.869 12.666-42.509 41.895-50.562 40.986-11.269 82.589-11.723 122.827 2.663 11.789 4.189 26.079 13.639 30.366 24.258 12.991 32.117 3.735 80.763-32.542 96.708-11.269 4.936-23.513 7.599-35.172 11.658-5.261 1.852-10.198 4.644-15.297 7.015 3.67 4.546 6.723 9.872 11.14 13.509 42.545 34.978 97.43 17.078 111.947-35.851 11.757-42.801-.584-82.258-14.841-121.681-5.457-15.133-13.803-30.136-15.037-45.659-1.851-23.414.584-47.315 2.728-70.859 1.072-11.756-.747-18.51-12.764-23.414-21.662-8.833-35.789-26.012-42.674-48.224-17.115-55.401 8.282-125.188 74.339-145.322 15.005-4.579 31.958-4.806 47.839-3.962 12.146.649 18.121 9.969 17.051 23.121-1.14 14.224-10.524 11.431-19.714 11.204-37.219-1.039-66.675 17.179-80.38 49.199-12.017 28.09-5.814 62.025 13.835 75.697 12.633 8.801 17.31 7.242 18.479-7.664 2.306-28.902 17.44-51.407 37.413-69.819 8.899-8.184 23.871-11.431 36.597-13.315 10.69-1.591 16.63 10.489 11.37 20.394-2.21 4.189-5.52 8.281-9.35 11.009-7.83 5.553-8.25 10.911-4.78 19.939 13.61 35.624-.52 68.196-35.526 81.738-10.457 4.026-14.419 10.489-15.036 20.263-2.663 41.373-7.86 83.069 13.9 120.025 3.377-10.554 5.423-23.641 11.464-34.552 17.505-31.598 36.278-62.546 55.178-93.364 34.72-56.635 44.53-118.044 32.51-182.408-4.26-22.861-12.18-46.503-24.36-66.085l.1-.13Zm-421.387-70.079c-4.417-.779-9.678-.357-13.088-2.63-5.684-3.832-10.165-9.418-15.134-14.289-4.547-4.124-11.854-7.502-13.186-12.47-8.346-31.468-15.784-63.195-22.571-95.052-2.663-12.405-2.891-25.363-4.222-38.06l82.036 159.156-13.835 3.345Zm95.547 566.968c.649 2.435-9.549 11.301-13.803 10.651-5.619-.844-12.731-7.436-14.42-12.989-1.104-3.605 6.366-9.808 12.926-18.998 7.372 9.613 13.543 14.873 15.297 21.336ZM827.801 658.09c-6.171 24.583-11.789 49.329-17.733 73.977-.942 3.961-2.468 7.826-4.449 14.061-4.222-30.526-3.832-59.785-13.023-85.667-10.068-28.383 3.865-51.179 7.307-76.347.715-5.131 7.405-9.45 11.334-14.126 3.475 4.903 8.444 9.352 10.166 14.84 5.358 16.919 10.717 34.001 13.543 51.44 1.071 6.689-5.294 14.321-7.178 21.79l.033.032Zm98.761 302.076c-2.24 6.397-8.996 11.236-13.9 16.691-4.774-5.585-11.334-10.586-13.51-17.049-.942-2.76 7.275-8.605 13.738-15.717 6.43 7.274 14.647 13.314 13.64 16.107l.032-.032Zm91.808-573.236c-7.76 2.533-15.52 5.066-23.249 7.599-.422-6.105-1.689-12.34-1.819-18.38l70.508-136.814c-2.05 44.879-8.54 88.817-29.91 129.345-3.64 6.884-10.26 12.21-15.49 18.25h-.04Z"/><path fill="#9F66D3" d="M612.512 607.431v.226c.065 0 .13-.032.194-.064l-.162-.162h-.032Z"/><path fill="#260048" d="M1348.83 594.311c9.3 0 16.85-7.546 16.85-16.854s-7.55-16.854-16.85-16.854c-9.31 0-16.86 7.546-16.86 16.854s7.55 16.854 16.86 16.854ZM1399.46 615.614c9.31 0 16.85-7.546 16.85-16.854s-7.54-16.854-16.85-16.854c-9.31 0-16.86 7.546-16.86 16.854s7.55 16.854 16.86 16.854ZM1112.33 827.411s38.65 9.223 58.23 4.352-16.27-13.769-16.27-13.769l-21.34 1.753-20.62 7.664Z"/><path fill="#fff" d="M992.718 175.783a6.78 6.78 0 0 1-2.241-.39c-196.387-72.58-364.325-.876-366.013-.13-3.313 1.429-7.113-.065-8.542-3.344-1.429-3.28.065-7.112 3.345-8.541 1.721-.747 174.465-74.528 375.724-.13a6.455 6.455 0 0 1 3.832 8.346 6.494 6.494 0 0 1-6.105 4.254v-.065Z"/><path fill="#9F66D3" d="M1154.26 818.026c4.71 3.377 9.97 6.203 13.99 10.229 28.03 28.026 62.81 34.358 99.16 17.829 3.24-1.494 6.95-2.014 10.45-2.988.39 1.624.82 3.28 1.21 4.904-19.13 26.791-47.45 30.266-75.45 23.966-45.56-10.23-90.25-24.486-135.23-37.281-11.37-3.247-22.67-6.884-33.65-11.268-4.22-1.689-7.43-5.911-11.1-8.963 6.04-3.02 12.99-9.645 17.99-8.411 20.33 5.001 40.17 12.113 59.98 19.03 11.73 4.092 22.09 3.442 31.34-5.293l21.34-1.754h-.03Z"/></g><defs><clipPath id="a"><path fill="#fff" d="M0 0h1619v1352H0z"/></clipPath></defs>
</svg>